HIERARCHY
ROOT reference
{
  OFFSET 0 0 0
  CHANNELS 6 Xposition Yposition Zposition Zrotation Xrotation Yrotation
  JOINT root
  {
    OFFSET 0 88.2491 0
    CHANNELS 6 Xposition Yposition Zposition Zrotation Xrotation Yrotation
    JOINT Hips
    {
      OFFSET 0 0 0
      CHANNELS 6 Xposition Yposition Zposition Zrotation Xrotation Yrotation
      JOINT Spine
      {
        OFFSET -0.026467 -0.105476 -0.013596
        CHANNELS 6 Xposition Yposition Zposition Zrotation Xrotation Yrotation
        JOINT Spine1
        {
          OFFSET 4.85354 17.1934 5.02749
          CHANNELS 6 Xposition Yposition Zposition Zrotation Xrotation Yrotation
          JOINT Spine2
          {
            OFFSET 3.45712 17.0434 6.48956
            CHANNELS 6 Xposition Yposition Zposition Zrotation Xrotation Yrotation
            JOINT Neck
            {
              OFFSET 5.14071 15.5862 8.66938
              CHANNELS 6 Xposition Yposition Zposition Zrotation Xrotation Yrotation
              End Site
              {
                OFFSET 4.15253 8.55486 6.52394
              }
            }
            JOINT RightShoulder
            {
              OFFSET 3.29961 14.5422 11.6338
              CHANNELS 6 Xposition Yposition Zposition Zrotation Xrotation Yrotation
              JOINT RightArm
              {
                OFFSET -5.33341 -8.03214 12.8704
                CHANNELS 6 Xposition Yposition Zposition Zrotation Xrotation Yrotation
                JOINT RightForeArm
                {
                  OFFSET -0.59541 -13.7862 25.9663
                  CHANNELS 6 Xposition Yposition Zposition Zrotation Xrotation Yrotation
                  End Site
                  {
                    OFFSET 13.5169 -1.52001 20.8898
                  }
                }
              }
            }
            JOINT LeftShoulder
            {
              OFFSET 6.99272 16.6182 5.71375
              CHANNELS 6 Xposition Yposition Zposition Zrotation Xrotation Yrotation
              JOINT LeftArm
              {
                OFFSET 6.71871 3.24731 -14.245
                CHANNELS 6 Xposition Yposition Zposition Zrotation Xrotation Yrotation
                JOINT LeftForeArm
                {
                  OFFSET -8.81742 -14.5927 -23.9577
                  CHANNELS 6 Xposition Yposition Zposition Zrotation Xrotation Yrotation
                  End Site
                  {
                    OFFSET 10.5264 -21.3111 -7.51206
                  }
                }
              }
            }
          }
        }
      }
      JOINT RightUpLeg
      {
        OFFSET -4.59323 -0.383102 8.37345
        CHANNELS 6 Xposition Yposition Zposition Zrotation Xrotation Yrotation
        JOINT RightLeg
        {
          OFFSET 10.2067 -39.0446 19.9636
          CHANNELS 6 Xposition Yposition Zposition Zrotation Xrotation Yrotation
          JOINT RightFoot
          {
            OFFSET -4.84224 -40.8755 1.14925
            CHANNELS 6 Xposition Yposition Zposition Zrotation Xrotation Yrotation
            End Site
            {
              OFFSET 9.73669 -6.85347 13.5043
            }
          }
        }
      }
      JOINT LeftUpLeg
      {
        OFFSET 4.59323 0.383102 -8.37344
        CHANNELS 6 Xposition Yposition Zposition Zrotation Xrotation Yrotation
        JOINT LeftLeg
        {
          OFFSET 5.42552 -42.6869 -13.2512
          CHANNELS 6 Xposition Yposition Zposition Zrotation Xrotation Yrotation
          JOINT LeftFoot
          {
            OFFSET -11.0952 -37.6886 -12.3303
            CHANNELS 6 Xposition Yposition Zposition Zrotation Xrotation Yrotation
            End Site
            {
              OFFSET 16.3568 -7.51905 0.239315
            }
          }
        }
      }
    }
  }
}
MOTION
Frames:	1
Frame Time:	0.0333333
0 0 0 0 0 -0 0 88.2491 -4e-06 2e-06 1e-06 2e-06 0 0 0 1e-06 2e-06 4e-06 -0.026467 -0.105476 -0.013596 -2e-06 -3.49066e-14 1e-06 4.85354 17.1934 5.02749 1e-06 -3e-06 -2e-06 3.45712 17.0434 6.48956 1e-06 1e-06 1e-06 5.14071 15.5862 8.66938 -5e-06 1.74533e-13 -2e-06 3.29961 14.5422 11.6338 -1e-06 3e-06 3e-06 -5.33341 -8.03214 12.8704 -3e-06 -8e-06 3e-06 -0.59541 -13.7862 25.9663 3e-06 -3e-06 -3e-06 6.99272 16.6182 5.71375 -3e-06 -3e-06 1e-06 6.71871 3.24731 -14.245 8e-06 8e-06 2e-06 -8.81742 -14.5927 -23.9577 1e-06 -1e-06 1.74533e-14 -4.59323 -0.383102 8.37345 1e-06 3e-06 6e-06 10.2067 -39.0446 19.9636 2e-06 -4.18879e-13 -1.2e-05 -4.84224 -40.8755 1.14925 -6.68029e-22 -7.58303e-22 7e-06 4.59323 0.383102 -8.37344 6e-06 4e-06 -1e-06 5.42552 -42.6869 -13.2512 7e-06 -2e-06 -1e-06 -11.0952 -37.6886 -12.3303 1e-06 2e-06 -3.49066e-14 
